<svg id="Layer_1" data-name="Layer 1" xmlns="http://www.w3.org/2000/svg" viewBox="0 0 282 58"><title>Benchmark-Bank-Logo-Color</title><path id="BB-mark" d="M22.87,23.17A2.86,2.86,0,0,0,25.74,26h2.35V20.33H25.74A2.86,2.86,0,0,0,22.87,23.17ZM47.47,32H45.12v5.69h2.35A2.85,2.85,0,1,0,47.54,32Zm-24.6,2.81a2.87,2.87,0,0,0,2.87,2.85h2.35v-5.7H25.74a2.87,2.87,0,0,0-2.87,2.85Zm24.6-14.43H45.12v5.7h2.35a2.85,2.85,0,1,0,0-5.7ZM36.32,0C16.26,0,0,13,0,29S16.26,58,36.32,58,72.65,45,72.65,29,56.39,0,36.32,0ZM56.68,35a8.6,8.6,0,0,1-8.36,8.56v0H39.59V31.94h-6V43.57h-8.7v0A8.59,8.59,0,0,1,16.53,35,8.48,8.48,0,0,1,19,29a8.54,8.54,0,0,1,5.88-14.56v0h8.7V26.06h6V14.43h8.73v0A8.54,8.54,0,0,1,54.21,29,8.53,8.53,0,0,1,56.68,35Z" style="fill:#ea0a2a"/><path id="logotype" d="M88,24.18h6.6a3.63,3.63,0,0,1,2.53.8A2.61,2.61,0,0,1,98,27a2.47,2.47,0,0,1-.63,1.7,2.85,2.85,0,0,1-1.23.75,3.27,3.27,0,0,1,1.81,1,2.74,2.74,0,0,1,.58,1.78A3,3,0,0,1,97,34.86a3.88,3.88,0,0,1-1.34.37c-.8.1-1.32.15-1.58.15H88Zm3.56,4.39h1.53a1.86,1.86,0,0,0,1.15-.27,1,1,0,0,0,.32-.81.92.92,0,0,0-.32-.76,1.73,1.73,0,0,0-1.13-.28H91.56Zm0,4.41h1.8a2,2,0,0,0,1.28-.32,1.07,1.07,0,0,0,.37-.85,1,1,0,0,0-.37-.8,2.1,2.1,0,0,0-1.29-.3H91.56V33Zm10.58-8.8h9.45v2.39h-5.92v1.78h5.49v2.29h-5.49v2.21h6.09v2.53h-9.62Zm13.29,0h3.3l4.29,6.2v-6.2h3.33v11.2H123l-4.27-6.15v6.15h-3.32ZM138,30.8l3.09.91a5.71,5.71,0,0,1-1,2.14,4.24,4.24,0,0,1-1.67,1.29,6.37,6.37,0,0,1-2.52.43,7.37,7.37,0,0,1-3-.53,4.76,4.76,0,0,1-2-1.86,6.22,6.22,0,0,1-.85-3.42,5.8,5.8,0,0,1,1.5-4.28,6.93,6.93,0,0,1,7.65-.63A5,5,0,0,1,141,27.47l-3.11.68a2.29,2.29,0,0,0-.35-.74,2.05,2.05,0,0,0-.72-.62,2.28,2.28,0,0,0-1-.21,2.09,2.09,0,0,0-1.84,1,3.93,3.93,0,0,0-.48,2.2,4.12,4.12,0,0,0,.58,2.56,2,2,0,0,0,1.62.69,2,2,0,0,0,1.53-.56A3.5,3.5,0,0,0,138,30.8Zm6.57-6.62h3.52V28.1H152V24.18h3.54v11.2H152V30.85h-3.86v4.53h-3.52Zm15,0h4.63L166,31l1.78-6.82h4.63v11.2h-2.89V26.84l-2.22,8.54h-2.62l-2.22-8.54v8.54h-2.88Zm23.85,9.35h-4l-.55,1.85h-3.6l4.29-11.2h3.84l4.29,11.2H184Zm-.73-2.42-1.26-4-1.25,4Zm7.91,4.27V24.18h5.88a8.43,8.43,0,0,1,2.5.28,2.59,2.59,0,0,1,1.39,1,3.07,3.07,0,0,1,.53,1.81A3,3,0,0,1,199.4,30a4.59,4.59,0,0,1-1.24.44,3.6,3.6,0,0,1,.92.41,3.13,3.13,0,0,1,.56.59,4.25,4.25,0,0,1,.5.7l1.7,3.24h-4L196,32a2.58,2.58,0,0,0-.64-.86,1.42,1.42,0,0,0-.87-.26h-.31v4.54Zm3.54-6.66h1.49a4.87,4.87,0,0,0,.93-.15.93.93,0,0,0,.57-.35,1,1,0,0,0,.23-.65,1,1,0,0,0-.35-.84,2.25,2.25,0,0,0-1.32-.29h-1.55v2.28Zm10.58-4.54h3.53v4.23L212,24.18h4.69l-4.16,4.23,4.35,7h-4.35l-2.4-4.6-1.82,1.87v2.73h-3.53Zm22.09,0h6.6A3.7,3.7,0,0,1,236,25a2.6,2.6,0,0,1,.88,2,2.47,2.47,0,0,1-.63,1.7,2.85,2.85,0,0,1-1.23.75,3.27,3.27,0,0,1,1.81,1,2.67,2.67,0,0,1,.58,1.78,2.94,2.94,0,0,1-.41,1.56,3,3,0,0,1-1.13,1.1,3.88,3.88,0,0,1-1.34.37c-.79.1-1.32.15-1.58.15h-6.09V24.18Zm3.56,4.39h1.53a1.86,1.86,0,0,0,1.15-.27,1,1,0,0,0,.33-.81.93.93,0,0,0-.33-.76,1.72,1.72,0,0,0-1.12-.28h-1.56v2.12Zm0,4.41h1.8a2,2,0,0,0,1.28-.32,1.06,1.06,0,0,0,.38-.85,1,1,0,0,0-.37-.8,2.13,2.13,0,0,0-1.3-.3h-1.79V33Zm17.33.55h-4l-.56,1.85h-3.6l4.29-11.2h3.85L252,35.38h-3.69ZM247,31.11l-1.26-4-1.25,4Zm7.89-6.93h3.29l4.3,6.2v-6.2h3.32v11.2h-3.32l-4.27-6.15v6.15h-3.32Zm15,0h3.52v4.23l3.69-4.23h4.69l-4.16,4.23,4.35,7h-4.34l-2.41-4.6-1.82,1.87v2.73h-3.52Z" style="fill:#3a3c43"/></svg>